<?xml version="1.0" encoding="utf-8" standalone="no"?>
<!DOCTYPE svg PUBLIC "-//W3C//DTD SVG 1.1//EN"
  "http://www.w3.org/Graphics/SVG/1.1/DTD/svg11.dtd">
<svg xmlns:xlink="http://www.w3.org/1999/xlink" width="1070.067187pt" height="457.133937pt" viewBox="0 0 1070.067187 457.133937" xmlns="http://www.w3.org/2000/svg" version="1.1">
 <metadata>
  <rdf:RDF xmlns:dc="http://purl.org/dc/elements/1.1/" xmlns:cc="http://creativecommons.org/ns#" xmlns:rdf="http://www.w3.org/1999/02/22-rdf-syntax-ns#">
   <cc:Work>
    <dc:type rdf:resource="http://purl.org/dc/dcmitype/StillImage"/>
    <dc:date>2026-06-13</dc:date>
    <dc:format>image/svg+xml</dc:format>
    <dc:creator>
     <cc:Agent>
      <dc:title>Matplotlib v3.10.9, https://matplotlib.org/</dc:title>
     </cc:Agent>
    </dc:creator>
   </cc:Work>
  </rdf:RDF>
 </metadata>
 <defs>
  <style type="text/css">*{stroke-linejoin: round; stroke-linecap: butt}</style>
 </defs>
 <g id="figure_1">
  <g id="patch_1">
   <path d="M 0 457.133937
L 1070.067187 457.133937
L 1070.067187 0
L 0 0
z
" style="fill: #ffffff"/>
  </g>
  <g id="axes_1">
   <g id="patch_2">
    <path d="M 47.307187 432.288
L 1062.867188 432.288
L 1062.867188 74.592
L 47.307187 74.592
z
" style="fill: #f8fafc"/>
   </g>
   <g id="matplotlib.axis_1">
    <g id="xtick_1">
     <g id="line2d_1">
      <path d="M 93.469006 432.288
L 93.469006 74.592
" clip-path="url(#pce57f611da)" style="fill: none; stroke: #d8dee6; stroke-width: 0.8; stroke-linecap: square"/>
     </g>
     <g id="line2d_2">
      <defs>
       <path id="mdc9f0702a1" d="M 0 0
L 0 3.5
" style="stroke: #17212b; stroke-width: 0.8"/>
      </defs>
      <g>
       <use xlink:href="#mdc9f0702a1" x="93.469006" y="432.288" style="fill: #17212b; stroke: #17212b; stroke-width: 0.8"/>
      </g>
     </g>
     <g id="text_1">
      <text style="font-size: 11px; font-family: 'DejaVu Sans'; text-anchor: middle; fill: #17212b" x="93.469006" y="447.646281" transform="rotate(-0 93.469006 447.646281)">clean</text>
     </g>
    </g>
    <g id="xtick_2">
     <g id="line2d_3">
      <path d="M 177.399584 432.288
L 177.399584 74.592
" clip-path="url(#pce57f611da)" style="fill: none; stroke: #d8dee6; stroke-width: 0.8; stroke-linecap: square"/>
     </g>
     <g id="line2d_4">
      <g>
       <use xlink:href="#mdc9f0702a1" x="177.399584" y="432.288" style="fill: #17212b; stroke: #17212b; stroke-width: 0.8"/>
      </g>
     </g>
     <g id="text_2">
      <text style="font-size: 11px; font-family: 'DejaVu Sans'; text-anchor: middle; fill: #17212b" x="177.399584" y="447.646281" transform="rotate(-0 177.399584 447.646281)">tiled-v3</text>
     </g>
    </g>
    <g id="xtick_3">
     <g id="line2d_5">
      <path d="M 261.330163 432.288
L 261.330163 74.592
" clip-path="url(#pce57f611da)" style="fill: none; stroke: #d8dee6; stroke-width: 0.8; stroke-linecap: square"/>
     </g>
     <g id="line2d_6">
      <g>
       <use xlink:href="#mdc9f0702a1" x="261.330163" y="432.288" style="fill: #17212b; stroke: #17212b; stroke-width: 0.8"/>
      </g>
     </g>
     <g id="text_3">
      <text style="font-size: 11px; font-family: 'DejaVu Sans'; text-anchor: middle; fill: #17212b" x="261.330163" y="447.646281" transform="rotate(-0 261.330163 447.646281)">JPEG70</text>
     </g>
    </g>
    <g id="xtick_4">
     <g id="line2d_7">
      <path d="M 345.260741 432.288
L 345.260741 74.592
" clip-path="url(#pce57f611da)" style="fill: none; stroke: #d8dee6; stroke-width: 0.8; stroke-linecap: square"/>
     </g>
     <g id="line2d_8">
      <g>
       <use xlink:href="#mdc9f0702a1" x="345.260741" y="432.288" style="fill: #17212b; stroke: #17212b; stroke-width: 0.8"/>
      </g>
     </g>
     <g id="text_4">
      <text style="font-size: 11px; font-family: 'DejaVu Sans'; text-anchor: middle; fill: #17212b" x="345.260741" y="447.646281" transform="rotate(-0 345.260741 447.646281)">JPEG50</text>
     </g>
    </g>
    <g id="xtick_5">
     <g id="line2d_9">
      <path d="M 429.19132 432.288
L 429.19132 74.592
" clip-path="url(#pce57f611da)" style="fill: none; stroke: #d8dee6; stroke-width: 0.8; stroke-linecap: square"/>
     </g>
     <g id="line2d_10">
      <g>
       <use xlink:href="#mdc9f0702a1" x="429.19132" y="432.288" style="fill: #17212b; stroke: #17212b; stroke-width: 0.8"/>
      </g>
     </g>
     <g id="text_5">
      <text style="font-size: 11px; font-family: 'DejaVu Sans'; text-anchor: middle; fill: #17212b" x="429.19132" y="447.646281" transform="rotate(-0 429.19132 447.646281)">JPEG30</text>
     </g>
    </g>
    <g id="xtick_6">
     <g id="line2d_11">
      <path d="M 513.121898 432.288
L 513.121898 74.592
" clip-path="url(#pce57f611da)" style="fill: none; stroke: #d8dee6; stroke-width: 0.8; stroke-linecap: square"/>
     </g>
     <g id="line2d_12">
      <g>
       <use xlink:href="#mdc9f0702a1" x="513.121898" y="432.288" style="fill: #17212b; stroke: #17212b; stroke-width: 0.8"/>
      </g>
     </g>
     <g id="text_6">
      <text style="font-size: 11px; font-family: 'DejaVu Sans'; text-anchor: middle; fill: #17212b" x="513.121898" y="447.646281" transform="rotate(-0 513.121898 447.646281)">noise3</text>
     </g>
    </g>
    <g id="xtick_7">
     <g id="line2d_13">
      <path d="M 597.052477 432.288
L 597.052477 74.592
" clip-path="url(#pce57f611da)" style="fill: none; stroke: #d8dee6; stroke-width: 0.8; stroke-linecap: square"/>
     </g>
     <g id="line2d_14">
      <g>
       <use xlink:href="#mdc9f0702a1" x="597.052477" y="432.288" style="fill: #17212b; stroke: #17212b; stroke-width: 0.8"/>
      </g>
     </g>
     <g id="text_7">
      <text style="font-size: 11px; font-family: 'DejaVu Sans'; text-anchor: middle; fill: #17212b" x="597.052477" y="447.646281" transform="rotate(-0 597.052477 447.646281)">social</text>
     </g>
    </g>
    <g id="xtick_8">
     <g id="line2d_15">
      <path d="M 680.983055 432.288
L 680.983055 74.592
" clip-path="url(#pce57f611da)" style="fill: none; stroke: #d8dee6; stroke-width: 0.8; stroke-linecap: square"/>
     </g>
     <g id="line2d_16">
      <g>
       <use xlink:href="#mdc9f0702a1" x="680.983055" y="432.288" style="fill: #17212b; stroke: #17212b; stroke-width: 0.8"/>
      </g>
     </g>
     <g id="text_8">
      <text style="font-size: 11px; font-family: 'DejaVu Sans'; text-anchor: middle; fill: #17212b" x="680.983055" y="447.646281" transform="rotate(-0 680.983055 447.646281)">social720</text>
     </g>
    </g>
    <g id="xtick_9">
     <g id="line2d_17">
      <path d="M 764.913634 432.288
L 764.913634 74.592
" clip-path="url(#pce57f611da)" style="fill: none; stroke: #d8dee6; stroke-width: 0.8; stroke-linecap: square"/>
     </g>
     <g id="line2d_18">
      <g>
       <use xlink:href="#mdc9f0702a1" x="764.913634" y="432.288" style="fill: #17212b; stroke: #17212b; stroke-width: 0.8"/>
      </g>
     </g>
     <g id="text_9">
      <text style="font-size: 11px; font-family: 'DejaVu Sans'; text-anchor: middle; fill: #17212b" x="764.913634" y="447.646281" transform="rotate(-0 764.913634 447.646281)">crop85</text>
     </g>
    </g>
    <g id="xtick_10">
     <g id="line2d_19">
      <path d="M 848.844212 432.288
L 848.844212 74.592
" clip-path="url(#pce57f611da)" style="fill: none; stroke: #d8dee6; stroke-width: 0.8; stroke-linecap: square"/>
     </g>
     <g id="line2d_20">
      <g>
       <use xlink:href="#mdc9f0702a1" x="848.844212" y="432.288" style="fill: #17212b; stroke: #17212b; stroke-width: 0.8"/>
      </g>
     </g>
     <g id="text_10">
      <text style="font-size: 11px; font-family: 'DejaVu Sans'; text-anchor: middle; fill: #17212b" x="848.844212" y="447.646281" transform="rotate(-0 848.844212 447.646281)">screen</text>
     </g>
    </g>
    <g id="xtick_11">
     <g id="line2d_21">
      <path d="M 932.774791 432.288
L 932.774791 74.592
" clip-path="url(#pce57f611da)" style="fill: none; stroke: #d8dee6; stroke-width: 0.8; stroke-linecap: square"/>
     </g>
     <g id="line2d_22">
      <g>
       <use xlink:href="#mdc9f0702a1" x="932.774791" y="432.288" style="fill: #17212b; stroke: #17212b; stroke-width: 0.8"/>
      </g>
     </g>
     <g id="text_11">
      <text style="font-size: 11px; font-family: 'DejaVu Sans'; text-anchor: middle; fill: #17212b" x="932.774791" y="447.646281" transform="rotate(-0 932.774791 447.646281)">blur1</text>
     </g>
    </g>
    <g id="xtick_12">
     <g id="line2d_23">
      <path d="M 1016.705369 432.288
L 1016.705369 74.592
" clip-path="url(#pce57f611da)" style="fill: none; stroke: #d8dee6; stroke-width: 0.8; stroke-linecap: square"/>
     </g>
     <g id="line2d_24">
      <g>
       <use xlink:href="#mdc9f0702a1" x="1016.705369" y="432.288" style="fill: #17212b; stroke: #17212b; stroke-width: 0.8"/>
      </g>
     </g>
     <g id="text_12">
      <text style="font-size: 11px; font-family: 'DejaVu Sans'; text-anchor: middle; fill: #17212b" x="1016.705369" y="447.646281" transform="rotate(-0 1016.705369 447.646281)">resize</text>
     </g>
    </g>
   </g>
   <g id="matplotlib.axis_2">
    <g id="ytick_1">
     <g id="line2d_25">
      <defs>
       <path id="mb11b5e3aa4" d="M 0 0
L -3.5 0
" style="stroke: #17212b; stroke-width: 0.8"/>
      </defs>
      <g>
       <use xlink:href="#mb11b5e3aa4" x="47.307187" y="432.288" style="fill: #17212b; stroke: #17212b; stroke-width: 0.8"/>
      </g>
     </g>
     <g id="text_13">
      <text style="font-size: 11px; font-family: 'DejaVu Sans'; text-anchor: end; fill: #17212b" x="40.307187" y="436.467141" transform="rotate(-0 40.307187 436.467141)">0.2</text>
     </g>
    </g>
    <g id="ytick_2">
     <g id="line2d_26">
      <g>
       <use xlink:href="#mb11b5e3aa4" x="47.307187" y="382.608" style="fill: #17212b; stroke: #17212b; stroke-width: 0.8"/>
      </g>
     </g>
     <g id="text_14">
      <text style="font-size: 11px; font-family: 'DejaVu Sans'; text-anchor: end; fill: #17212b" x="40.307187" y="386.787141" transform="rotate(-0 40.307187 386.787141)">0.3</text>
     </g>
    </g>
    <g id="ytick_3">
     <g id="line2d_27">
      <g>
       <use xlink:href="#mb11b5e3aa4" x="47.307187" y="332.928" style="fill: #17212b; stroke: #17212b; stroke-width: 0.8"/>
      </g>
     </g>
     <g id="text_15">
      <text style="font-size: 11px; font-family: 'DejaVu Sans'; text-anchor: end; fill: #17212b" x="40.307187" y="337.107141" transform="rotate(-0 40.307187 337.107141)">0.4</text>
     </g>
    </g>
    <g id="ytick_4">
     <g id="line2d_28">
      <g>
       <use xlink:href="#mb11b5e3aa4" x="47.307187" y="283.248" style="fill: #17212b; stroke: #17212b; stroke-width: 0.8"/>
      </g>
     </g>
     <g id="text_16">
      <text style="font-size: 11px; font-family: 'DejaVu Sans'; text-anchor: end; fill: #17212b" x="40.307187" y="287.427141" transform="rotate(-0 40.307187 287.427141)">0.5</text>
     </g>
    </g>
    <g id="ytick_5">
     <g id="line2d_29">
      <g>
       <use xlink:href="#mb11b5e3aa4" x="47.307187" y="233.568" style="fill: #17212b; stroke: #17212b; stroke-width: 0.8"/>
      </g>
     </g>
     <g id="text_17">
      <text style="font-size: 11px; font-family: 'DejaVu Sans'; text-anchor: end; fill: #17212b" x="40.307187" y="237.747141" transform="rotate(-0 40.307187 237.747141)">0.6</text>
     </g>
    </g>
    <g id="ytick_6">
     <g id="line2d_30">
      <g>
       <use xlink:href="#mb11b5e3aa4" x="47.307187" y="183.888" style="fill: #17212b; stroke: #17212b; stroke-width: 0.8"/>
      </g>
     </g>
     <g id="text_18">
      <text style="font-size: 11px; font-family: 'DejaVu Sans'; text-anchor: end; fill: #17212b" x="40.307187" y="188.067141" transform="rotate(-0 40.307187 188.067141)">0.7</text>
     </g>
    </g>
    <g id="ytick_7">
     <g id="line2d_31">
      <g>
       <use xlink:href="#mb11b5e3aa4" x="47.307187" y="134.208" style="fill: #17212b; stroke: #17212b; stroke-width: 0.8"/>
      </g>
     </g>
     <g id="text_19">
      <text style="font-size: 11px; font-family: 'DejaVu Sans'; text-anchor: end; fill: #17212b" x="40.307187" y="138.387141" transform="rotate(-0 40.307187 138.387141)">0.8</text>
     </g>
    </g>
    <g id="ytick_8">
     <g id="line2d_32">
      <g>
       <use xlink:href="#mb11b5e3aa4" x="47.307187" y="84.528" style="fill: #17212b; stroke: #17212b; stroke-width: 0.8"/>
      </g>
     </g>
     <g id="text_20">
      <text style="font-size: 11px; font-family: 'DejaVu Sans'; text-anchor: end; fill: #17212b" x="40.307187" y="88.707141" transform="rotate(-0 40.307187 88.707141)">0.9</text>
     </g>
    </g>
    <g id="text_21">
     <text style="font-size: 12px; font-family: 'DejaVu Sans'; text-anchor: middle; fill: #17212b" x="16.318125" y="253.44" transform="rotate(-90 16.318125 253.44)">mean score or rate</text>
    </g>
   </g>
   <g id="line2d_33">
    <path d="M 93.469006 116.271399
L 177.399584 110.764995
L 261.330163 110.102187
L 345.260741 118.871645
L 429.19132 125.907606
L 513.121898 99.242335
L 597.052477 110.663025
L 680.983055 109.082483
L 764.913634 122.950463
L 848.844212 135.951695
L 932.774791 140.59135
L 1016.705369 143.344552
" clip-path="url(#pce57f611da)" style="fill: none; stroke: #d07c2c; stroke-width: 3; stroke-linecap: square"/>
    <defs>
     <path id="mdaf1ae994c" d="M 0 3
C 0.795609 3 1.55874 2.683901 2.12132 2.12132
C 2.683901 1.55874 3 0.795609 3 0
C 3 -0.795609 2.683901 -1.55874 2.12132 -2.12132
C 1.55874 -2.683901 0.795609 -3 0 -3
C -0.795609 -3 -1.55874 -2.683901 -2.12132 -2.12132
C -2.683901 -1.55874 -3 -0.795609 -3 0
C -3 0.795609 -2.683901 1.55874 -2.12132 2.12132
C -1.55874 2.683901 -0.795609 3 0 3
z
" style="stroke: #d07c2c"/>
    </defs>
    <g clip-path="url(#pce57f611da)">
     <use xlink:href="#mdaf1ae994c" x="93.469006" y="116.271399" style="fill: #d07c2c; stroke: #d07c2c"/>
     <use xlink:href="#mdaf1ae994c" x="177.399584" y="110.764995" style="fill: #d07c2c; stroke: #d07c2c"/>
     <use xlink:href="#mdaf1ae994c" x="261.330163" y="110.102187" style="fill: #d07c2c; stroke: #d07c2c"/>
     <use xlink:href="#mdaf1ae994c" x="345.260741" y="118.871645" style="fill: #d07c2c; stroke: #d07c2c"/>
     <use xlink:href="#mdaf1ae994c" x="429.19132" y="125.907606" style="fill: #d07c2c; stroke: #d07c2c"/>
     <use xlink:href="#mdaf1ae994c" x="513.121898" y="99.242335" style="fill: #d07c2c; stroke: #d07c2c"/>
     <use xlink:href="#mdaf1ae994c" x="597.052477" y="110.663025" style="fill: #d07c2c; stroke: #d07c2c"/>
     <use xlink:href="#mdaf1ae994c" x="680.983055" y="109.082483" style="fill: #d07c2c; stroke: #d07c2c"/>
     <use xlink:href="#mdaf1ae994c" x="764.913634" y="122.950463" style="fill: #d07c2c; stroke: #d07c2c"/>
     <use xlink:href="#mdaf1ae994c" x="848.844212" y="135.951695" style="fill: #d07c2c; stroke: #d07c2c"/>
     <use xlink:href="#mdaf1ae994c" x="932.774791" y="140.59135" style="fill: #d07c2c; stroke: #d07c2c"/>
     <use xlink:href="#mdaf1ae994c" x="1016.705369" y="143.344552" style="fill: #d07c2c; stroke: #d07c2c"/>
    </g>
   </g>
   <g id="line2d_34">
    <path d="M 93.469006 152.511158
L 177.399584 146.700632
L 261.330163 151.058526
L 345.260741 158.321684
L 429.19132 180.111158
L 513.121898 149.605895
L 597.052477 145.248
L 680.983055 153.963789
L 764.913634 171.395368
L 848.844212 168.490105
L 932.774791 178.658526
L 1016.705369 175.753263
" clip-path="url(#pce57f611da)" style="fill: none; stroke: #2e6f95; stroke-width: 3; stroke-linecap: square"/>
    <defs>
     <path id="mfa79c7a603" d="M 0 3
C 0.795609 3 1.55874 2.683901 2.12132 2.12132
C 2.683901 1.55874 3 0.795609 3 0
C 3 -0.795609 2.683901 -1.55874 2.12132 -2.12132
C 1.55874 -2.683901 0.795609 -3 0 -3
C -0.795609 -3 -1.55874 -2.683901 -2.12132 -2.12132
C -2.683901 -1.55874 -3 -0.795609 -3 0
C -3 0.795609 -2.683901 1.55874 -2.12132 2.12132
C -1.55874 2.683901 -0.795609 3 0 3
z
" style="stroke: #2e6f95"/>
    </defs>
    <g clip-path="url(#pce57f611da)">
     <use xlink:href="#mfa79c7a603" x="93.469006" y="152.511158" style="fill: #2e6f95; stroke: #2e6f95"/>
     <use xlink:href="#mfa79c7a603" x="177.399584" y="146.700632" style="fill: #2e6f95; stroke: #2e6f95"/>
     <use xlink:href="#mfa79c7a603" x="261.330163" y="151.058526" style="fill: #2e6f95; stroke: #2e6f95"/>
     <use xlink:href="#mfa79c7a603" x="345.260741" y="158.321684" style="fill: #2e6f95; stroke: #2e6f95"/>
     <use xlink:href="#mfa79c7a603" x="429.19132" y="180.111158" style="fill: #2e6f95; stroke: #2e6f95"/>
     <use xlink:href="#mfa79c7a603" x="513.121898" y="149.605895" style="fill: #2e6f95; stroke: #2e6f95"/>
     <use xlink:href="#mfa79c7a603" x="597.052477" y="145.248" style="fill: #2e6f95; stroke: #2e6f95"/>
     <use xlink:href="#mfa79c7a603" x="680.983055" y="153.963789" style="fill: #2e6f95; stroke: #2e6f95"/>
     <use xlink:href="#mfa79c7a603" x="764.913634" y="171.395368" style="fill: #2e6f95; stroke: #2e6f95"/>
     <use xlink:href="#mfa79c7a603" x="848.844212" y="168.490105" style="fill: #2e6f95; stroke: #2e6f95"/>
     <use xlink:href="#mfa79c7a603" x="932.774791" y="178.658526" style="fill: #2e6f95; stroke: #2e6f95"/>
     <use xlink:href="#mfa79c7a603" x="1016.705369" y="175.753263" style="fill: #2e6f95; stroke: #2e6f95"/>
    </g>
   </g>
   <g id="line2d_35">
    <path d="M 93.469006 274.532211
L 177.399584 260.005895
L 261.330163 299.226947
L 345.260741 321.016421
L 429.19132 360.237474
L 513.121898 297.774316
L 597.052477 278.890105
L 680.983055 299.226947
L 764.913634 273.079579
L 848.844212 270.174316
L 932.774791 254.195368
L 1016.705369 257.100632
" clip-path="url(#pce57f611da)" style="fill: none; stroke: #2f8a5b; stroke-width: 3; stroke-linecap: square"/>
    <defs>
     <path id="maa5c823f6e" d="M 0 3
C 0.795609 3 1.55874 2.683901 2.12132 2.12132
C 2.683901 1.55874 3 0.795609 3 0
C 3 -0.795609 2.683901 -1.55874 2.12132 -2.12132
C 1.55874 -2.683901 0.795609 -3 0 -3
C -0.795609 -3 -1.55874 -2.683901 -2.12132 -2.12132
C -2.683901 -1.55874 -3 -0.795609 -3 0
C -3 0.795609 -2.683901 1.55874 -2.12132 2.12132
C -1.55874 2.683901 -0.795609 3 0 3
z
" style="stroke: #2f8a5b"/>
    </defs>
    <g clip-path="url(#pce57f611da)">
     <use xlink:href="#maa5c823f6e" x="93.469006" y="274.532211" style="fill: #2f8a5b; stroke: #2f8a5b"/>
     <use xlink:href="#maa5c823f6e" x="177.399584" y="260.005895" style="fill: #2f8a5b; stroke: #2f8a5b"/>
     <use xlink:href="#maa5c823f6e" x="261.330163" y="299.226947" style="fill: #2f8a5b; stroke: #2f8a5b"/>
     <use xlink:href="#maa5c823f6e" x="345.260741" y="321.016421" style="fill: #2f8a5b; stroke: #2f8a5b"/>
     <use xlink:href="#maa5c823f6e" x="429.19132" y="360.237474" style="fill: #2f8a5b; stroke: #2f8a5b"/>
     <use xlink:href="#maa5c823f6e" x="513.121898" y="297.774316" style="fill: #2f8a5b; stroke: #2f8a5b"/>
     <use xlink:href="#maa5c823f6e" x="597.052477" y="278.890105" style="fill: #2f8a5b; stroke: #2f8a5b"/>
     <use xlink:href="#maa5c823f6e" x="680.983055" y="299.226947" style="fill: #2f8a5b; stroke: #2f8a5b"/>
     <use xlink:href="#maa5c823f6e" x="764.913634" y="273.079579" style="fill: #2f8a5b; stroke: #2f8a5b"/>
     <use xlink:href="#maa5c823f6e" x="848.844212" y="270.174316" style="fill: #2f8a5b; stroke: #2f8a5b"/>
     <use xlink:href="#maa5c823f6e" x="932.774791" y="254.195368" style="fill: #2f8a5b; stroke: #2f8a5b"/>
     <use xlink:href="#maa5c823f6e" x="1016.705369" y="257.100632" style="fill: #2f8a5b; stroke: #2f8a5b"/>
    </g>
   </g>
   <g id="line2d_36">
    <path d="M 47.307187 283.248
L 1062.867188 283.248
" clip-path="url(#pce57f611da)" style="fill: none; stroke-dasharray: 4.44,1.92; stroke-dashoffset: 0; stroke: #8b97a6; stroke-width: 1.2"/>
   </g>
   <g id="text_22">
    <text style="font-size: 9px; font-family: 'DejaVu Sans'; text-anchor: middle; fill: #17212b" x="93.469006" y="107.328999" transform="rotate(-0 93.469006 107.328999)">0.836</text>
   </g>
   <g id="text_23">
    <text style="font-size: 9px; font-family: 'DejaVu Sans'; text-anchor: middle; fill: #17212b" x="93.469006" y="291.920211" transform="rotate(-0 93.469006 291.920211)">0.518</text>
   </g>
   <g id="text_24">
    <text style="font-size: 9px; font-family: 'DejaVu Sans'; text-anchor: middle; fill: #17212b" x="177.399584" y="101.822595" transform="rotate(-0 177.399584 101.822595)">0.847</text>
   </g>
   <g id="text_25">
    <text style="font-size: 9px; font-family: 'DejaVu Sans'; text-anchor: middle; fill: #17212b" x="177.399584" y="277.393895" transform="rotate(-0 177.399584 277.393895)">0.547</text>
   </g>
   <g id="text_26">
    <text style="font-size: 9px; font-family: 'DejaVu Sans'; text-anchor: middle; fill: #17212b" x="261.330163" y="101.159787" transform="rotate(-0 261.330163 101.159787)">0.849</text>
   </g>
   <g id="text_27">
    <text style="font-size: 9px; font-family: 'DejaVu Sans'; text-anchor: middle; fill: #17212b" x="261.330163" y="316.614947" transform="rotate(-0 261.330163 316.614947)">0.468</text>
   </g>
   <g id="text_28">
    <text style="font-size: 9px; font-family: 'DejaVu Sans'; text-anchor: middle; fill: #17212b" x="345.260741" y="109.929245" transform="rotate(-0 345.260741 109.929245)">0.831</text>
   </g>
   <g id="text_29">
    <text style="font-size: 9px; font-family: 'DejaVu Sans'; text-anchor: middle; fill: #17212b" x="345.260741" y="338.404421" transform="rotate(-0 345.260741 338.404421)">0.424</text>
   </g>
   <g id="text_30">
    <text style="font-size: 9px; font-family: 'DejaVu Sans'; text-anchor: middle; fill: #17212b" x="429.19132" y="116.965206" transform="rotate(-0 429.19132 116.965206)">0.817</text>
   </g>
   <g id="text_31">
    <text style="font-size: 9px; font-family: 'DejaVu Sans'; text-anchor: middle; fill: #17212b" x="429.19132" y="377.625474" transform="rotate(-0 429.19132 377.625474)">0.345</text>
   </g>
   <g id="text_32">
    <text style="font-size: 9px; font-family: 'DejaVu Sans'; text-anchor: middle; fill: #17212b" x="513.121898" y="90.299935" transform="rotate(-0 513.121898 90.299935)">0.870</text>
   </g>
   <g id="text_33">
    <text style="font-size: 9px; font-family: 'DejaVu Sans'; text-anchor: middle; fill: #17212b" x="513.121898" y="315.162316" transform="rotate(-0 513.121898 315.162316)">0.471</text>
   </g>
   <g id="text_34">
    <text style="font-size: 9px; font-family: 'DejaVu Sans'; text-anchor: middle; fill: #17212b" x="597.052477" y="101.720625" transform="rotate(-0 597.052477 101.720625)">0.847</text>
   </g>
   <g id="text_35">
    <text style="font-size: 9px; font-family: 'DejaVu Sans'; text-anchor: middle; fill: #17212b" x="597.052477" y="296.278105" transform="rotate(-0 597.052477 296.278105)">0.509</text>
   </g>
   <g id="text_36">
    <text style="font-size: 9px; font-family: 'DejaVu Sans'; text-anchor: middle; fill: #17212b" x="680.983055" y="100.140083" transform="rotate(-0 680.983055 100.140083)">0.851</text>
   </g>
   <g id="text_37">
    <text style="font-size: 9px; font-family: 'DejaVu Sans'; text-anchor: middle; fill: #17212b" x="680.983055" y="316.614947" transform="rotate(-0 680.983055 316.614947)">0.468</text>
   </g>
   <g id="text_38">
    <text style="font-size: 9px; font-family: 'DejaVu Sans'; text-anchor: middle; fill: #17212b" x="764.913634" y="114.008063" transform="rotate(-0 764.913634 114.008063)">0.823</text>
   </g>
   <g id="text_39">
    <text style="font-size: 9px; font-family: 'DejaVu Sans'; text-anchor: middle; fill: #17212b" x="764.913634" y="290.467579" transform="rotate(-0 764.913634 290.467579)">0.520</text>
   </g>
   <g id="text_40">
    <text style="font-size: 9px; font-family: 'DejaVu Sans'; text-anchor: middle; fill: #17212b" x="848.844212" y="127.009295" transform="rotate(-0 848.844212 127.009295)">0.796</text>
   </g>
   <g id="text_41">
    <text style="font-size: 9px; font-family: 'DejaVu Sans'; text-anchor: middle; fill: #17212b" x="848.844212" y="287.562316" transform="rotate(-0 848.844212 287.562316)">0.526</text>
   </g>
   <g id="text_42">
    <text style="font-size: 9px; font-family: 'DejaVu Sans'; text-anchor: middle; fill: #17212b" x="932.774791" y="131.64895" transform="rotate(-0 932.774791 131.64895)">0.787</text>
   </g>
   <g id="text_43">
    <text style="font-size: 9px; font-family: 'DejaVu Sans'; text-anchor: middle; fill: #17212b" x="932.774791" y="271.583368" transform="rotate(-0 932.774791 271.583368)">0.558</text>
   </g>
   <g id="text_44">
    <text style="font-size: 9px; font-family: 'DejaVu Sans'; text-anchor: middle; fill: #17212b" x="1016.705369" y="134.402152" transform="rotate(-0 1016.705369 134.402152)">0.782</text>
   </g>
   <g id="text_45">
    <text style="font-size: 9px; font-family: 'DejaVu Sans'; text-anchor: middle; fill: #17212b" x="1016.705369" y="274.488632" transform="rotate(-0 1016.705369 274.488632)">0.553</text>
   </g>
   <g id="text_46">
    <g id="patch_3">
     <path d="M 67.618387 417.733896
L 843.316044 417.733896
Q 847.936044 417.733896 847.936044 413.113896
L 847.936044 402.467959
Q 847.936044 397.847959 843.316044 397.847959
L 67.618387 397.847959
Q 62.998387 397.847959 62.998387 402.467959
L 62.998387 413.113896
Q 62.998387 417.733896 67.618387 417.733896
z
" style="fill: #fff5e8; stroke: #e2c198; stroke-linejoin: miter"/>
    </g>
    <text style="font-size: 11px; font-family: 'DejaVu Sans'; text-anchor: start; fill: #17212b" x="67.618387" y="410.82624" transform="rotate(-0 67.618387 410.82624)">Read this panel as a stress test, not a final production guarantee: tiling helps, but blur, resize, and harsh JPEG still move the operating point.</text>
   </g>
   <g id="legend_1">
    <g id="line2d_37">
     <path d="M 948.654531 89.000281
L 959.654531 89.000281
L 970.654531 89.000281
" style="fill: none; stroke: #d07c2c; stroke-width: 3; stroke-linecap: square"/>
     <g>
      <use xlink:href="#mdaf1ae994c" x="959.654531" y="89.000281" style="fill: #d07c2c; stroke: #d07c2c"/>
     </g>
    </g>
    <g id="text_47">
     <text style="font-size: 11px; font-family: 'DejaVu Sans'; text-anchor: start" x="979.454531" y="92.850281" transform="rotate(-0 979.454531 92.850281)">AUC</text>
    </g>
    <g id="line2d_38">
     <path d="M 948.654531 105.146219
L 959.654531 105.146219
L 970.654531 105.146219
" style="fill: none; stroke: #2e6f95; stroke-width: 3; stroke-linecap: square"/>
     <g>
      <use xlink:href="#mfa79c7a603" x="959.654531" y="105.146219" style="fill: #2e6f95; stroke: #2e6f95"/>
     </g>
    </g>
    <g id="text_48">
     <text style="font-size: 11px; font-family: 'DejaVu Sans'; text-anchor: start" x="979.454531" y="108.996219" transform="rotate(-0 979.454531 108.996219)">Accuracy</text>
    </g>
    <g id="line2d_39">
     <path d="M 948.654531 121.292156
L 959.654531 121.292156
L 970.654531 121.292156
" style="fill: none; stroke: #2f8a5b; stroke-width: 3; stroke-linecap: square"/>
     <g>
      <use xlink:href="#maa5c823f6e" x="959.654531" y="121.292156" style="fill: #2f8a5b; stroke: #2f8a5b"/>
     </g>
    </g>
    <g id="text_49">
     <text style="font-size: 11px; font-family: 'DejaVu Sans'; text-anchor: start" x="979.454531" y="125.142156" transform="rotate(-0 979.454531 125.142156)">Fake-call rate</text>
    </g>
   </g>
  </g>
  <g id="text_50">
   <text style="font-weight: 700; font-size: 18px; font-family: 'DejaVu Sans'; text-anchor: start; fill: #17212b" x="47.307187" y="20.877187" transform="rotate(-0 47.307187 20.877187)">Poster panel: processing shift changes ranking and fake-call behavior</text>
  </g>
  <g id="text_51">
   <text style="font-size: 12px; font-family: 'DejaVu Sans'; text-anchor: start; fill: #4a5568" x="47.307187" y="32.882625" transform="rotate(-0 47.307187 32.882625)">Reverse tuned fusion with source fake-rate cap 0.40; tiled-v3 swaps in native-tiled combined_v3 target scores.</text>
  </g>
 </g>
 <defs>
  <clipPath id="pce57f611da">
   <rect x="47.307187" y="74.592" width="1015.56" height="357.696"/>
  </clipPath>
 </defs>
</svg>
